<svg xmlns="http://www.w3.org/2000/svg" width="59.347" height="28.16" viewBox="0 0 59.347 28.16">
  <g id="aktion_reperatur" transform="translate(0.502 0.544)">
    <g id="Gruppe_16" data-name="Gruppe 16" transform="translate(0 13.997)">
      <path id="Rechteck_35" data-name="Rechteck 35" d="M5.894,0h6.564a3.111,3.111,0,0,1,3.111,3.111V5.894a5.894,5.894,0,0,1-5.894,5.894H5.894A5.894,5.894,0,0,1,0,5.894v0A5.894,5.894,0,0,1,5.894,0Z" transform="translate(2.331 0) rotate(0.256)" fill="none" stroke="#181818" stroke-linecap="round" stroke-linejoin="round" stroke-width="1"/>
      <path id="Rechteck_36" data-name="Rechteck 36" d="M5.894,0H9.675a5.894,5.894,0,0,1,5.894,5.894V8.677a3.111,3.111,0,0,1-3.111,3.111H5.894A5.894,5.894,0,0,1,0,5.894v0A5.894,5.894,0,0,1,5.894,0Z" transform="translate(40.493 11.959) rotate(-179.744)" fill="none" stroke="#181818" stroke-linecap="round" stroke-linejoin="round" stroke-width="1"/>
      <path id="Pfad_27" data-name="Pfad 27" d="M64.338,538.812l1.931.009.837-.668a1.358,1.358,0,0,1,1.712.007l.83.676,1.949.008" transform="translate(-46.539 -536.89)" fill="none" stroke="#181818" stroke-linecap="round" stroke-linejoin="round" stroke-width="1"/>
      <line id="Linie_14" data-name="Linie 14" x1="3.343" y1="0.015" transform="translate(0 1.845)" fill="none" stroke="#181818" stroke-linecap="round" stroke-linejoin="round" stroke-width="1"/>
      <line id="Linie_15" data-name="Linie 15" x1="3.343" y1="0.015" transform="translate(39.488 2.018)" fill="none" stroke="#181818" stroke-linecap="round" stroke-linejoin="round" stroke-width="1"/>
    </g>
    <path id="Pfad_28" data-name="Pfad 28" d="M54.372,535.849" transform="translate(-43.659 -522.313)" fill="none" stroke="#fff" stroke-linecap="round" stroke-linejoin="round" stroke-width="1"/>
    <path id="Pfad_29" data-name="Pfad 29" d="M49.48,539" transform="translate(-42.245 -523.224)" fill="none" stroke="#fff" stroke-linecap="round" stroke-linejoin="round" stroke-width="1"/>
    <path id="Pfad_30" data-name="Pfad 30" d="M89.982,549.986l-.35-2.812h-3.54v-1.7l-2.315-1.77" transform="translate(-52.156 -524.583)" fill="none" stroke="#181818" stroke-linecap="round" stroke-linejoin="round" stroke-width="1"/>
    <path id="Pfad_31" data-name="Pfad 31" d="M91.047,542.362l-1.43,1.861.715,2.564" transform="translate(-53.843 -524.195)" fill="none" stroke="#181818" stroke-linecap="round" stroke-linejoin="round" stroke-width="1"/>
    <path id="Pfad_32" data-name="Pfad 32" d="M112.347,537.567a4.108,4.108,0,0,1-.277,4.8l-1.935-3.033a1.294,1.294,0,0,0-2.181,1.392l1.935,3.033a4.1,4.1,0,0,1-4.487-6.145l-7.9-12.377a.917.917,0,0,1-.119-.252,4.1,4.1,0,0,1-3.716-6.654l1.936,3.033a1.294,1.294,0,1,0,2.181-1.393l-1.936-3.033a4.106,4.106,0,0,1,4.469,6.182.848.848,0,0,1,.176.209l7.9,12.376A4.1,4.1,0,0,1,112.347,537.567Z" transform="translate(-54.747 -516.813)" fill="#fff" stroke="#181818" stroke-linecap="round" stroke-linejoin="round" stroke-width="1"/>
  </g>
</svg>
