<svg xmlns="http://www.w3.org/2000/svg" width="55.014" height="42.012" viewBox="0 0 55.014 42.012">
  <g id="Gruppe_28" data-name="Gruppe 28" transform="translate(-476.987 -217.862)">
    <g id="Gruppe_27" data-name="Gruppe 27" transform="translate(497.736 218.362)">
      <circle id="Ellipse_10" data-name="Ellipse 10" cx="10.147" cy="10.147" r="10.147" transform="translate(4.191 8.998)" stroke-width="1" stroke="#181818" stroke-linecap="round" stroke-linejoin="round" fill="#fff"/>
      <line id="Linie_22" data-name="Linie 22" y2="5.233" transform="translate(14.338 33.057)" fill="none" stroke="#181818" stroke-linecap="round" stroke-linejoin="round" stroke-width="1"/>
      <line id="Linie_23" data-name="Linie 23" x2="5.233" transform="translate(28.532 19.145)" fill="none" stroke="#181818" stroke-linecap="round" stroke-linejoin="round" stroke-width="1"/>
      <line id="Linie_24" data-name="Linie 24" x2="3.7" y2="3.7" transform="translate(24.976 27.999)" fill="none" stroke="#181818" stroke-linecap="round" stroke-linejoin="round" stroke-width="1"/>
      <line id="Linie_25" data-name="Linie 25" y1="5.233" transform="translate(14.338)" fill="none" stroke="#181818" stroke-linecap="round" stroke-linejoin="round" stroke-width="1"/>
      <line id="Linie_26" data-name="Linie 26" x1="3.7" y1="3.7" transform="translate(0 6.591)" fill="none" stroke="#181818" stroke-linecap="round" stroke-linejoin="round" stroke-width="1"/>
      <line id="Linie_27" data-name="Linie 27" x1="3.7" y2="3.7" transform="translate(0 27.999)" fill="none" stroke="#181818" stroke-linecap="round" stroke-linejoin="round" stroke-width="1"/>
      <line id="Linie_28" data-name="Linie 28" y1="3.7" x2="3.7" transform="translate(24.976 6.591)" fill="none" stroke="#181818" stroke-linecap="round" stroke-linejoin="round" stroke-width="1"/>
    </g>
    <path id="Pfad_53" data-name="Pfad 53" d="M494.345,235.7a3.644,3.644,0,1,0,7.027-1.877l6.434,6.436-15.159,15.159-2.184-2.183-3.967-3.965a3.8,3.8,0,0,0,4.472-3.433.9.9,0,0,0,0-.276c-.58-3.63-4.334-4.443-6.336-2.441a3.641,3.641,0,0,0-1,3.289l-6.15-6.149h0l6.057-6.057a3.8,3.8,0,0,1-4.315-3.5.893.893,0,0,1,0-.268c.6-3.6,4.334-4.405,6.331-2.409a3.644,3.644,0,0,1,1.024,3.138l6.06-6.06,6.439,6.439a3.642,3.642,0,0,0-4.742,4.162Z" transform="translate(0 3.959)" fill="#fff" stroke="#181818" stroke-linecap="round" stroke-linejoin="round" stroke-width="1"/>
  </g>
</svg>
