<svg xmlns="http://www.w3.org/2000/svg" width="49.615" height="30.169" viewBox="0 0 49.615 30.169">
  <g id="aktion_gutschein" transform="translate(0.5 0.5)">
    <rect id="Rechteck_28" data-name="Rechteck 28" width="48.615" height="29.169" rx="3.146" fill="none" stroke="#181818" stroke-linecap="round" stroke-linejoin="round" stroke-width="1"/>
    <line id="Linie_3" data-name="Linie 3" x2="48.615" transform="translate(0 11.314)" fill="none" stroke="#181818" stroke-linecap="round" stroke-linejoin="round" stroke-width="1"/>
    <line id="Linie_4" data-name="Linie 4" y1="29.169" transform="translate(8.106)" fill="none" stroke="#181818" stroke-linecap="round" stroke-linejoin="round" stroke-width="1"/>
    <path id="Pfad_14" data-name="Pfad 14" d="M53.469,283.143s2.81.285,4.257-1.162c1.492-1.492,1.466-2.452.281-3.577-1.127-1.189-2.088-1.216-3.581.277-1.447,1.448-1.162,4.257-1.162,4.257" transform="translate(-45.135 -271.852)" fill="none" stroke="#181818" stroke-linecap="round" stroke-linejoin="round" stroke-width="1"/>
    <path id="Pfad_15" data-name="Pfad 15" d="M53.014,283.143s-2.81.285-4.257-1.162c-1.492-1.492-1.466-2.452-.281-3.577,1.127-1.189,2.087-1.216,3.581.277,1.447,1.448,1.162,4.257,1.162,4.257" transform="translate(-45.135 -271.852)" fill="none" stroke="#181818" stroke-linecap="round" stroke-linejoin="round" stroke-width="1"/>
    <line id="Linie_5" data-name="Linie 5" x1="3.476" y1="3.476" transform="translate(8.129 11.087)" fill="none" stroke="#181818" stroke-linecap="round" stroke-linejoin="round" stroke-width="1"/>
    <line id="Linie_6" data-name="Linie 6" y1="3.476" x2="3.476" transform="translate(4.63 11.087)" fill="none" stroke="#181818" stroke-linecap="round" stroke-linejoin="round" stroke-width="1"/>
  </g>
</svg>
