<svg xmlns="http://www.w3.org/2000/svg" width="41.435" height="39.259" viewBox="0 0 41.435 39.259">
  <g id="aktion_beratung" transform="translate(0.707 0.5)">
    <circle id="Ellipse_3" data-name="Ellipse 3" cx="9.395" cy="9.395" r="9.395" transform="translate(16.511 1.033)" stroke-width="1" stroke="#181818" stroke-linecap="round" stroke-linejoin="round" fill="#fff"/>
    <path id="Pfad_16" data-name="Pfad 16" d="M65.53,417h0c-9.527,0-14.322,3.548-14.322,13.075h0a2.573,2.573,0,0,0,2.566,2.566H77.285a2.573,2.573,0,0,0,2.567-2.566h0C79.852,420.545,75.057,417,65.53,417Z" transform="translate(-39.624 -394.379)" fill="#fff" stroke="#181818" stroke-linecap="round" stroke-linejoin="round" stroke-width="1"/>
    <rect id="Rechteck_29" data-name="Rechteck 29" width="4.453" height="18.99" rx="2.226" transform="translate(3.149 25.076) rotate(-135)" stroke-width="1" stroke="#181818" stroke-linecap="round" stroke-linejoin="round" fill="#fff"/>
    <circle id="Ellipse_4" data-name="Ellipse 4" cx="8.394" cy="8.394" r="8.394" transform="translate(8.288)" stroke-width="1" stroke="#181818" stroke-linecap="round" stroke-linejoin="round" fill="#fff"/>
    <rect id="Rechteck_30" data-name="Rechteck 30" width="4.979" height="2.234" rx="1.117" transform="translate(8.937 12.619) rotate(45)" stroke-width="1" stroke="#181818" stroke-linecap="round" stroke-linejoin="round" fill="#fff"/>
    <circle id="Ellipse_5" data-name="Ellipse 5" cx="6.542" cy="6.542" r="6.542" transform="translate(10.14 1.852)" stroke-width="1" stroke="#181818" stroke-linecap="round" stroke-linejoin="round" fill="#fff"/>
  </g>
</svg>
