<svg xmlns="http://www.w3.org/2000/svg" width="61.597" height="29.036" viewBox="0 0 61.597 29.036">
  <g id="Gruppe_26" data-name="Gruppe 26" transform="translate(-145.779 -228.987)">
    <g id="Gruppe_22" data-name="Gruppe 22" transform="translate(188.15 237.727)">
      <line id="Linie_19" data-name="Linie 19" y1="9.58" x2="9.58" transform="translate(0.33 0.576)" fill="none" stroke="#181818" stroke-linecap="round" stroke-linejoin="round" stroke-width="1"/>
      <circle id="Ellipse_8" data-name="Ellipse 8" cx="1.847" cy="1.847" r="1.847" stroke-width="1" stroke="#181818" stroke-linecap="round" stroke-linejoin="round" fill="none"/>
      <circle id="Ellipse_9" data-name="Ellipse 9" cx="1.847" cy="1.847" r="1.847" transform="translate(6.658 6.435)" stroke-width="1" stroke="#181818" stroke-linecap="round" stroke-linejoin="round" fill="none"/>
    </g>
    <g id="Gruppe_23" data-name="Gruppe 23" transform="translate(178.84 229.487)">
      <path id="Pfad_50" data-name="Pfad 50" d="M185.513,243.5l2.958-1.754-2.275-2.579,3.356-.75-1.362-3.158,3.424.324-.324-3.424,3.158,1.362.75-3.356,2.579,2.275,1.754-2.958,1.754,2.958,2.579-2.275.75,3.356,3.158-1.362-.324,3.424,3.424-.324-1.362,3.158,3.356.75-2.275,2.579,2.958,1.754-2.958,1.754,2.275,2.579-3.356.75,1.362,3.158-3.424-.324.324,3.424-3.158-1.362-.75,3.356-2.579-2.275-1.754,2.958-1.754-2.958L195.2,256.84l-.75-3.356-3.158,1.362.324-3.424-3.424.324,1.362-3.158-3.356-.75,2.275-2.579Z" transform="translate(-185.513 -229.487)" fill="none" stroke="#181818" stroke-linecap="round" stroke-linejoin="round" stroke-width="1"/>
    </g>
    <g id="Gruppe_25" data-name="Gruppe 25" transform="translate(146.387 232.244)">
      <line id="Linie_20" data-name="Linie 20" x1="2.693" y1="0.691" transform="translate(0 0.446)" fill="none" stroke="#181818" stroke-linecap="round" stroke-linejoin="round" stroke-width="1"/>
      <line id="Linie_21" data-name="Linie 21" x1="2.693" y1="0.691" transform="translate(36.913 9.922)" fill="none" stroke="#181818" stroke-linecap="round" stroke-linejoin="round" stroke-width="1"/>
      <path id="Pfad_51" data-name="Pfad 51" d="M155.88,235.4" transform="translate(-148.006 -233.252)" fill="none" stroke="#181818" stroke-linecap="round" stroke-linejoin="round" stroke-width="1"/>
      <g id="Gruppe_24" data-name="Gruppe 24" transform="translate(1.482)">
        <path id="Pfad_52" data-name="Pfad 52" d="M182.741,246.39a6.317,6.317,0,0,1-7.672,4.584l-.913-.235a8.363,8.363,0,0,1-6.28-7.187,22.5,22.5,0,0,0-.448-2.692l-.143-.6a1.311,1.311,0,0,0-2.216-.614l-.567.583a28.234,28.234,0,0,0-1.967,2.341,8.371,8.371,0,0,1-8.727,2.951l-.912-.235a6.316,6.316,0,0,1-4.515-7.712l.731-2.791a2.631,2.631,0,0,1,3.211-1.881l8.069,2.108,1.009.263a7.568,7.568,0,0,1,1.6.618l.319.166a1.807,1.807,0,0,0,.178.083l0,.008a16.379,16.379,0,0,0,6.539,1.753c.193.02.391.027.588.033l.372.008a7.612,7.612,0,0,1,1.692.231l.98.248,7.859,1.981a2.632,2.632,0,0,1,1.908,3.2Z" transform="translate(-148.174 -232.811)" fill="#fff" stroke="#161615" stroke-miterlimit="10" stroke-width="1"/>
      </g>
    </g>
  </g>
</svg>
