<?xml version="1.0" encoding="utf-8"?>
<!-- Generator: Adobe Illustrator 24.1.2, SVG Export Plug-In . SVG Version: 6.00 Build 0)  -->
<svg version="1.1" id="Ebene_1" xmlns="http://www.w3.org/2000/svg" xmlns:xlink="http://www.w3.org/1999/xlink" x="0px" y="0px"
	 viewBox="0 0 390 296.8" style="enable-background:new 0 0 390 296.8;" xml:space="preserve">
<style type="text/css">
	.st0{fill:#1D1D1B;}
</style>
<path class="st0" d="M379.3,28.5L379.3,28.5C355,2.7,268.1,0,231.9,0c-17.3,0-29.2,0.6-34.7,0.9S42,11.1,8.8,50.6
	c-15.9,19.1-6.7,60.1,0,90.1c2,8.9,20,87.6,50.6,120.1c21.2,22.9,65.1,36,120.1,36c10.4,0,21.1-0.5,31.8-1.4
	c66.3-5.9,127.8-27.6,145.1-40c15.2-11.3,20.6-45.3,24.6-70.2c0.7-4.1,1.3-7.9,1.9-11.2C385.6,159.1,399.3,49.6,379.3,28.5z"/>
</svg>
