<?xml version="1.0" encoding="utf-8"?>
<!-- Generator: Adobe Illustrator 24.1.2, SVG Export Plug-In . SVG Version: 6.00 Build 0)  -->
<svg version="1.1" id="Ebene_1" xmlns="http://www.w3.org/2000/svg" xmlns:xlink="http://www.w3.org/1999/xlink" x="0px" y="0px"
	 viewBox="0 0 58.5 44.5" style="enable-background:new 0 0 58.5 44.5;" xml:space="preserve">
<style type="text/css">
	.st0{clip-path:url(#SVGID_2_);}
	.st1{fill:#1ABAFF;}
	.st2{clip-path:url(#SVGID_4_);}
</style>
<g>
	<defs>
		<rect id="SVGID_1_" x="-9.6" y="-11.3" width="87.5" height="66.6"/>
	</defs>
	<clipPath id="SVGID_2_">
		<use xlink:href="#SVGID_1_"  style="overflow:visible;"/>
	</clipPath>
	<g class="st0">
		<path class="st1" d="M56.8,4.3C53.2,0.4,40.2,0,34.8,0c-2.6,0-4.4,0.1-5.2,0.1C28.7,0.2,6.3,1.7,1.3,7.6c-2.4,2.9-1,9,0,13.5
			c0.3,1.3,3,13.1,7.6,18c3.2,3.4,9.8,5.4,18,5.4c1.6,0,3.2-0.1,4.8-0.2c9.9-0.9,19.2-4.1,21.8-6c2.3-1.7,3.1-6.8,3.7-10.5
			c0.1-0.6,0.2-1.2,0.3-1.7C57.8,23.8,59.9,7.4,56.8,4.3 M56.9,25.9c-0.1,0.5-0.2,1.1-0.3,1.7c-0.5,3.4-1.3,8-3.3,9.4
			c-2.5,1.9-11.9,5-21.6,5.9c-1.6,0.1-3.2,0.2-4.7,0.2c-7.9,0-12.9-1.9-15.9-5.1c-3.6-3.9-6.3-12.4-7.4-17.1
			c-1-4.3-2.3-10.2-0.2-12.7c4.7-5.6,25.9-7.1,26.1-7.1C31,1,32.9,1,34.8,1C38.9,1,53,1.2,56.5,5C58.9,7.4,57.5,21.9,56.9,25.9"/>
	</g>
</g>
<g>
	<defs>
		<rect id="SVGID_3_" x="-9.6" y="-11.3" width="87.5" height="66.6"/>
	</defs>
	<clipPath id="SVGID_4_">
		<use xlink:href="#SVGID_3_"  style="overflow:visible;"/>
	</clipPath>
	<g class="st2">
		<path class="st1" d="M22.9,8.4c1.7,0,2.8,0.3,3.3,0.9c0.5,0.6,0.7,1.8,0.7,3.8c0,2.1-0.2,3.5-0.7,4c-0.5,0.5-1.7,0.8-3.6,0.8
			c-1.7,0-2.8-0.3-3.3-0.8c-0.5-0.6-0.7-1.8-0.7-3.6c0-2.2,0.2-3.6,0.7-4.2C19.8,8.7,21,8.4,22.9,8.4 M22.7,9.9
			c-1.2,0-1.9,0.2-2.1,0.5c-0.3,1-0.4,2.1-0.3,3.2c-0.1,0.8,0,1.7,0.4,2.4c0.2,0.3,0.9,0.4,2.1,0.4c1.2,0,1.8-0.2,2-0.5
			c0.3-0.9,0.4-1.9,0.3-2.8c0.1-0.9,0-1.9-0.3-2.8C24.6,10,23.9,9.9,22.7,9.9"/>
		<path class="st1" d="M28.3,11.3h1.6l-0.1,1l0,0c0.4-0.7,1.3-1.2,2.1-1.1c0.7-0.1,1.5,0.2,2,0.7c0.4,0.8,0.6,1.7,0.5,2.6
			c0.1,0.9-0.1,1.9-0.5,2.7c-0.5,0.6-1.3,0.8-2,0.7c-0.8,0.1-1.6-0.3-2-1l0,0v3.8h-1.6V11.3z M31.3,12.5c-0.4-0.1-0.9,0.1-1.2,0.4
			c-0.2,0.5-0.3,1.1-0.3,1.7c-0.1,0.6,0,1.2,0.3,1.7c0.3,0.3,0.8,0.5,1.2,0.4c0.6,0,1-0.1,1.2-0.4c0.2-0.5,0.3-1.1,0.3-1.7
			c0.1-0.6,0-1.2-0.3-1.7C32.4,12.6,32,12.4,31.3,12.5"/>
		<path class="st1" d="M40.4,11.3v1.2h-2.6v3.3c0,0.6,0.2,0.9,0.7,0.9s0.8-0.4,0.8-1.1v-0.3h1.3v0.3c0,0.3,0,0.6,0,0.8
			c-0.1,1-0.8,1.5-2.2,1.5c-1.4,0-2.1-0.6-2.1-1.9v-3.5h-0.9v-1.2h0.9V9.8h1.6v1.5H40.4z"/>
		<path class="st1" d="M43.4,9.8h-1.6V8.5h1.6V9.8z M43.4,17.8h-1.6v-6.5h1.6V17.8z"/>
		<polygon class="st1" points="46.7,8.5 46.7,13.8 47.1,13.8 48.9,11.3 50.7,11.3 48.4,14.4 51.1,17.8 49.2,17.8 47.1,14.9 
			46.7,14.9 46.7,17.8 45.1,17.8 45.1,8.5 		"/>
		<polygon class="st1" points="21.5,25.1 21.5,32.8 19.7,32.8 19.7,25.1 17,25.1 17,23.5 24.3,23.5 24.3,25.1 		"/>
		<path class="st1" d="M25.5,28.2h-1.6c-0.1-0.6,0.1-1.1,0.5-1.5c0.7-0.3,1.4-0.5,2.2-0.4c0.8-0.1,1.7,0.1,2.4,0.5
			c0.5,0.5,0.7,1.2,0.6,1.9v4.3H28l0.1-0.9l0,0c-0.3,0.7-1,1-2.1,1c-1.6,0-2.4-0.7-2.4-2c0-1.4,0.8-2,2.4-2c1.1,0,1.7,0.3,2,0.7l0,0
			v-1c0-0.4-0.1-0.7-0.3-1c-0.3-0.2-0.7-0.3-1.1-0.3c-0.8,0-1.2,0.3-1.2,0.9 M26.5,30.1c-0.9,0-1.3,0.3-1.3,0.9
			c0,0.4,0.1,0.7,0.3,0.8c0.4,0.2,0.7,0.2,1.1,0.2c1,0,1.4-0.3,1.4-1C28,30.4,27.5,30.1,26.5,30.1"/>
		<path class="st1" d="M35.2,30.3h1.6v0.2l-0.1,1c-0.2,0.9-1.1,1.4-2.8,1.4c-0.9,0.1-1.8-0.1-2.5-0.7c-0.5-0.8-0.7-1.8-0.6-2.7
			c-0.1-0.9,0.1-1.9,0.6-2.7c0.7-0.5,1.5-0.8,2.4-0.7c0.8-0.1,1.6,0.1,2.3,0.5c0.5,0.5,0.7,1.2,0.6,1.9h-1.5c0-0.8-0.4-1.2-1.3-1.2
			c-0.6,0-1,0.1-1.2,0.4c-0.2,0.6-0.3,1.2-0.3,1.8c-0.1,0.6,0,1.2,0.3,1.7c0.2,0.2,0.6,0.4,1.3,0.4c0.4,0,0.7,0,1-0.3
			C35.2,31.1,35.3,30.7,35.2,30.3"/>
		<polygon class="st1" points="39.5,23.5 39.5,28.8 39.9,28.8 41.7,26.3 43.5,26.3 41.2,29.4 43.9,32.8 42,32.8 39.9,29.9 
			39.5,29.9 39.5,32.8 37.9,32.8 37.9,23.5 		"/>
	</g>
</g>
</svg>
