<svg xmlns="http://www.w3.org/2000/svg" width="25.999" height="32" viewBox="0 0 25.999 32">
  <path id="pinterest" d="M15.685,0C6.913,0,2.25,5.621,2.25,11.749c0,2.841,1.588,6.387,4.131,7.511.725.327.629-.072,1.253-2.459a.567.567,0,0,0-.136-.556C3.863,12.042,6.789,3.4,15.166,3.4c12.124,0,9.859,16.776,2.109,16.776a2.861,2.861,0,0,1-3.015-3.508c.571-2.311,1.688-4.795,1.688-6.46,0-4.2-6.253-3.575-6.253,1.987a6.728,6.728,0,0,0,.608,2.879S8.291,23.2,7.918,24.719c-.632,2.571.085,6.732.148,7.091a.211.211,0,0,0,.384.1,25.144,25.144,0,0,0,3.312-6.237c.248-.913,1.265-4.62,1.265-4.62a5.528,5.528,0,0,0,4.664,2.224c6.128,0,10.557-5.387,10.557-12.071C28.228,4.795,22.744,0,15.685,0Z" transform="translate(-2.25)" fill="#1fbaff"/>
</svg>
